<?xml version="1.0" standalone="no"?><!DOCTYPE svg PUBLIC "-//W3C//DTD SVG 1.1//EN" "http://www.w3.org/Graphics/SVG/1.1/DTD/svg11.dtd"><svg width="200" height="200" viewBox="0 0 200 200" version="1.1" xmlns="http://www.w3.org/2000/svg" xmlns:xlink="http://www.w3.org/1999/xlink"><defs><style type="text/css"><![CDATA[
@font-face { font-family: ifont; src: url("//at.alicdn.com/t/font_1442373896_4754455.eot?#iefix") format("embedded-opentype"), url("//at.alicdn.com/t/font_1442373896_4754455.woff") format("woff"), url("//at.alicdn.com/t/font_1442373896_4754455.ttf") format("truetype"), url("//at.alicdn.com/t/font_1442373896_4754455.svg#ifont") format("svg"); }

]]></style></defs><g class="transform-group"><g transform="scale(0.1953125, 0.1953125)"><path d="M510.820128 813.332976c-149.505036-3.65525-273.741571-61.013609-370.797048-175.612647-31.092136-36.713156-55.288211-77.781504-73.668837-122.231879-0.931209-2.252297-0.902556-5.606695 0.070608-7.842619 58.32743-134.082788 156.344814-225.524406 294.742884-273.097912 39.889499-13.712303 81.169671-20.88261 123.33091-23.141046 81.33033-4.357238 158.911266 10.513448 232.490052 45.398979 78.399581 37.170574 141.994991 91.904153 191.351096 163.196873 18.969027 27.400047 34.757618 56.57246 47.432289 87.391373 0.989537 2.405793 1.098008 5.940292 0.085958 8.292873-53.03489 123.275651-141.404544 211.050764-265.394463 262.448364-49.405223 20.479427-101.151771 31.449269-154.62873 33.842783-8.246825 0.369414-16.524348 0.051165-24.787546 0.051165C510.970554 812.463166 510.895853 812.898071 510.820128 813.332976zM511.131213 270.559089c-51.624774-0.051165-101.748359 8.683776-149.783375 27.51261-103.119589 40.420595-179.314968 110.572328-229.057883 209.527061-1.502213 2.989077-1.422396 5.244444 0.033769 8.193613C197.956537 648.64617 323.295174 735.804229 470.591915 750.727103c49.675376 5.03262 98.903567 1.654686 147.003052-11.619642 123.882472-34.18866 214.512608-109.312638 272.649704-223.833905 1.351787-2.662643 1.2689-4.64581-0.024559-7.29208C818.99186 362.351702 672.706145 270.683932 511.131213 270.559089zM511.137353 351.262132c88.678692 0.00307 160.727635 72.14411 160.432922 160.637584-0.295735 88.674599-71.850421 160.142304-160.394037 160.197562-88.602967 0.055259-160.871921-72.321142-160.417573-160.65498C351.217107 422.558945 422.604994 351.259062 511.137353 351.262132zM511.081071 612.316753c55.023174 0.13303 100.189863-44.845371 100.721982-100.30038 0.528026-54.948473-45.167712-100.837616-100.541881-100.970646-55.221696-0.132006-100.95939 45.639456-100.712773 100.790544C410.79604 567.123458 455.878818 612.183723 511.081071 612.316753z" fill="#888888"></path></g></g></svg>