<?xml version="1.0" standalone="no"?><!DOCTYPE svg PUBLIC "-//W3C//DTD SVG 1.1//EN" "http://www.w3.org/Graphics/SVG/1.1/DTD/svg11.dtd"><svg width="200" height="200" viewBox="0 0 200 200" version="1.1" xmlns="http://www.w3.org/2000/svg" xmlns:xlink="http://www.w3.org/1999/xlink"><defs><style type="text/css"><![CDATA[
@font-face { font-family: ifont; src: url("//at.alicdn.com/t/font_1442373896_4754455.eot?#iefix") format("embedded-opentype"), url("//at.alicdn.com/t/font_1442373896_4754455.woff") format("woff"), url("//at.alicdn.com/t/font_1442373896_4754455.ttf") format("truetype"), url("//at.alicdn.com/t/font_1442373896_4754455.svg#ifont") format("svg"); }

]]></style></defs><g class="transform-group"><g transform="scale(0.1953125, 0.1953125)"><path d="M125.231701 863.127056l140.471288 0 0-421.36577-140.471288 0L125.231701 863.127056zM897.74397 476.896504c0-38.601156-31.578206-70.211085-70.206992-70.211085l-221.224474 0 35.07689-161.53093 0-10.547217c0-14.068414-6.996344-28.084639-13.991666-38.60525l-38.676881-35.131125-231.718479 231.746108c-14.040784 10.547217-21.089317 28.080545-21.089317 49.14428l0 351.155708c0 38.601156 31.632441 70.210062 70.260204 70.210062l316.024583 0c28.080545 0 52.668547-17.541515 63.215764-42.153052l105.337093-249.282506c3.497661-6.995321 3.497661-17.539468 3.497661-24.583908l0-70.211085L897.74397 476.896504C897.74397 480.420771 897.74397 476.896504 897.74397 476.896504" fill="#fff"></path></g></g></svg>