<?xml version="1.0" encoding="UTF-8" standalone="no"?>
<svg width="10px" height="15px" viewBox="0 0 10 15" version="1.1" xmlns="http://www.w3.org/2000/svg" xmlns:xlink="http://www.w3.org/1999/xlink">
    <!-- Generator: Sketch 3.8.1 (29687) - http://www.bohemiancoding.com/sketch -->
    <title>back</title>
    <desc>Created with Sketch.</desc>
    <defs></defs>
    <g id="iOS" stroke="none" stroke-width="1" fill="none" fill-rule="evenodd">
        <g id="H5" transform="translate(-350.000000, -1006.000000)" fill="#BABDBF">
            <g id="banner" transform="translate(0.000000, 981.000000)">
                <path d="M358.113973,25 C357.895947,25 357.591629,25.1128197 357.421969,25.2628582 L350.74376,31.1687278 C350.536877,31.3516844 350.272761,31.6928101 350.142573,31.953186 L350.095759,32.046814 C349.970615,32.2971017 349.965571,32.6928101 350.095759,32.953186 L350.142573,33.046814 C350.267717,33.2971017 350.536491,33.6479743 350.743758,33.8312722 L357.344574,39.6687278 C357.551455,39.8516844 357.948591,40 358.223186,40 L358.37129,40 C358.922401,40 359.369166,39.5570308 359.369166,38.9974379 L359.369166,38.9974379 C359.369166,38.7779382 359.235582,38.484544 359.068385,38.3400376 L352.942005,33.0450961 C352.625635,32.7716616 352.618299,32.3346766 352.942005,32.0549024 L359.068385,26.7599609 C359.234501,26.6163885 359.366816,26.3160706 359.363929,26.0901184 L359.363929,26.0901184 C359.356236,25.4880626 358.851846,25 358.253187,25 L358.113973,25 Z" id="back" transform="translate(354.684583, 32.500000) scale(-1, 1) translate(-354.684583, -32.500000) "></path>
            </g>
        </g>
    </g>
</svg>