<?xml version="1.0" encoding="UTF-8" standalone="no"?>
<svg width="40px" height="40px" viewBox="0 0 40 40" version="1.1" xmlns="http://www.w3.org/2000/svg" xmlns:xlink="http://www.w3.org/1999/xlink">
    <!-- Generator: Sketch 3.8.1 (29687) - http://www.bohemiancoding.com/sketch -->
    <title>Combined Shape</title>
    <desc>Created with Sketch.</desc>
    <defs></defs>
    <g id="iOS" stroke="none" stroke-width="1" fill="none" fill-rule="evenodd">
        <g id="H5" transform="translate(-16.000000, -993.000000)" fill="#D23E3B">
            <g id="banner" transform="translate(0.000000, 981.000000)">
                <path d="M55.9980953,44.9284483 C55.9980953,48.833554 52.8324111,52 48.9276864,52 L23.0704089,52 C19.1653032,52 16,48.833554 16,44.9284483 L16,19.0715517 C16,15.166827 19.1653032,12 23.0704089,12 L48.9276864,12 C52.8324111,12 55.9980953,15.166827 55.9980953,19.0715517 L55.9980953,44.9284483 Z M37.0038381,24.0354282 L37.0038381,26.3531204 C37.0038381,26.6914029 37.3745012,26.7672117 37.5432615,26.6270226 C41.2529404,24.0933324 44.5138618,23.8765726 47.1858363,24.2030457 L47.1858363,26.6300702 C44.6662413,26.3656918 40.9893239,26.5279759 37.2484072,29.3115685 C37.1219322,29.4090913 37.0038381,29.478424 37.0038381,29.7294692 L37.0038381,30.9020295 L37.0038381,32.8479157 L37.0038381,34.9000867 L37.0038381,37.4482529 L37.0038381,38.1438653 C37.0038381,38.5800516 37.3706917,38.6112894 37.576785,38.4722431 C42.2837878,35.1179894 47.0898372,35.7995067 49.4421958,36.532833 C49.6185751,36.5888325 49.9271436,36.4993095 49.9271436,36.1945505 L49.9271436,33.5408615 C49.9271436,33.3168636 49.8528585,33.232674 49.5877182,33.1450558 C47.4578337,32.4734431 43.9428196,31.8993533 39.8049542,33.7290502 L39.8049542,31.2357406 C43.9393911,29.2753783 47.634213,29.9900382 49.4745764,30.5816516 C49.7351454,30.6799364 49.9271436,30.4738431 49.9271436,30.2319406 L49.9271436,27.2948258 L49.9271436,21.8754488 C49.9271436,21.5607851 49.8155256,21.4933572 49.5877182,21.4179294 C46.2795592,20.3265112 41.5397949,20.3166065 37.1866935,23.5939086 C37.0647899,23.6853363 37.0038381,23.7394311 37.0038381,24.0354282 Z M36.2626642,41.6239845 C34.3621108,39.9146675 32.390701,39.0320092 30.5842421,38.5592518 L30.5842421,36.3444158 C32.0291807,36.7352692 33.4752621,37.3066923 35.0775326,38.4472529 C35.3247683,38.6430605 35.669527,38.5409663 35.669527,38.1455415 L35.669527,35.6827078 C35.669527,35.4762336 35.5548614,35.3966153 35.4413387,35.2815687 C33.7232598,34.016057 32.2604166,33.3558728 30.5842421,32.9242579 L30.5842421,30.4016152 C32.0337521,30.7920877 33.4032628,31.3528443 35.0824849,32.5021666 C35.3857201,32.7425453 35.6733364,32.5021666 35.6733364,32.187503 L35.6733364,29.6949553 C35.6733364,29.5684803 35.6436224,29.4896239 35.5422901,29.3966724 C33.8619251,28.1109704 32.227655,27.385263 30.5842421,26.9525052 L30.5842421,24.5209093 C32.0238474,24.910239 33.4127865,25.4530909 35.0573423,26.590223 C35.3822916,26.8153637 35.6733364,26.6283178 35.6733364,26.2866068 L35.6733364,24.0348187 C35.6733364,23.8477729 35.6626699,23.7460596 35.4813383,23.5818706 C33.8390682,22.3430253 32.1887982,21.5956039 30.5842421,21.1902744 L30.5842421,20.486662 C30.5842421,20.3068542 30.5404329,20.1902839 30.2520547,20.1198084 C29.6272988,19.9670479 28.9537814,19.877144 28.168646,19.8085733 C27.9526481,19.7746688 27.7648403,19.9392387 27.7648403,20.0980943 L27.7648403,20.7754212 C25.8989533,20.7281835 24.4608718,20.9666575 23.0791707,21.4093199 C22.9359339,21.4550338 22.7408882,21.5266521 22.7408882,21.8215065 L22.7408882,24.2877687 C22.7408882,24.6016705 22.9020295,24.7380501 23.180503,24.7007171 C24.392682,24.3239588 25.790002,24.0279616 27.7648403,24.0881515 L27.7648403,26.5353663 C25.4894334,26.5353663 24.4982048,26.7490786 23.0631708,27.1745983 C22.913077,27.2191693 22.7408882,27.3098351 22.7408882,27.5879277 L22.7408882,30.2221884 C22.7408882,30.4560909 22.8864106,30.6046609 23.1187893,30.6130418 C24.742012,30.0507614 26.0509519,29.9768574 27.7648403,29.9886668 L27.7648403,32.5787373 L27.7648403,35.8800392 L27.7648403,38.1520176 C27.0269426,38.1245893 26.1865697,38.1649699 25.5496233,38.2263026 L25.5496233,33.005019 C25.5496233,32.8503538 25.455529,32.6130227 25.0768659,32.6614032 C24.2574452,32.7962591 23.5804992,32.9882573 22.9858382,33.1711127 C22.8566966,33.213398 22.7408882,33.3292064 22.7408882,33.502919 L22.7408882,36.7703165 L22.7408882,41.7535071 C22.7408882,41.7535071 22.7408882,42.1382653 23.1694555,42.0917896 C26.474186,41.025514 31.6813745,41.0178951 36.15257,44.8635727 C36.4409482,45.1336654 36.6039942,45.1237607 36.8820868,44.8635727 C41.5890896,40.8209446 46.7444691,41.1436082 49.7840592,42.0689327 C50.0850087,42.1698841 50.3074828,41.9496957 50.3074828,41.7721736 L50.3074828,39.2064837 C50.3074828,38.8937248 50.1413891,38.8453443 49.9684384,38.803059 C45.4648622,37.3417396 40.5399568,38.2746831 36.7605642,41.6247464 C36.6218988,41.7706498 36.4333292,41.7794116 36.2626642,41.6239845 Z" id="Combined-Shape"></path>
            </g>
        </g>
    </g>
</svg>