<?xml version="1.0" encoding="UTF-8" standalone="no"?>
<svg width="23px" height="16px" viewBox="0 0 23 16" version="1.1" xmlns="http://www.w3.org/2000/svg" xmlns:xlink="http://www.w3.org/1999/xlink">
    <!-- Generator: Sketch 3.8.1 (29687) - http://www.bohemiancoding.com/sketch -->
    <title>quote</title>
    <desc>Created with Sketch.</desc>
    <defs></defs>
    <g id="iOS" stroke="none" stroke-width="1" fill="none" fill-rule="evenodd" opacity="0.2">
        <g id="H5" transform="translate(-176.000000, -351.000000)" fill="#000000">
            <g id="words" transform="translate(32.000000, 319.000000)">
                <path d="M160.450237,38.5539775 C160.729011,37.91826 161.13354,37.2862979 161.663826,36.658087 C162.781887,35.3335586 164.131446,34.2260914 165.712542,33.3356522 L165.068813,32 C163.081149,32.8904392 161.279855,34.3151206 159.664878,36.274087 C158.049901,38.2330533 157.242424,40.2699025 157.242424,42.3846957 C157.242424,42.5293745 157.24583,42.6720604 157.25264,42.8127535 C157.245864,42.9177757 157.242424,43.0237042 157.242424,43.1304348 C157.242424,44.2202805 157.601129,45.2265045 158.207129,46.037907 C158.39902,46.345095 158.61954,46.6355316 158.868687,46.9092174 C158.975863,47.0269493 159.14131,47.101935 159.35246,47.1404216 C160.139067,47.6825226 161.092994,48 162.121212,48 C164.493075,48 166.469621,46.3106431 166.908932,44.0716876 C166.968338,43.9817176 167,43.8992015 167,43.826087 C167,43.6993208 166.995809,43.5854837 166.987426,43.4827531 C166.995761,43.3663971 167,43.24891 167,43.1304348 C167,40.4410482 164.815692,38.2608696 162.121212,38.2608696 C161.534241,38.2608696 160.971481,38.3643302 160.450237,38.5539775 Z M147.207813,38.5539775 C147.486587,37.91826 147.891116,37.2862979 148.421402,36.658087 C149.539463,35.3335586 150.889021,34.2260914 152.470118,33.3356522 L151.826389,32 C149.838725,32.8904392 148.037431,34.3151206 146.422454,36.274087 C144.807476,38.2330533 144,40.2699025 144,42.3846957 C144,42.5293745 144.003405,42.6720604 144.010216,42.8127535 C144.00344,42.9177757 144,43.0237042 144,43.1304348 C144,44.2202805 144.358705,45.2265045 144.964704,46.037907 C145.156596,46.345095 145.377116,46.6355316 145.626263,46.9092174 C145.730396,47.0236068 145.889539,47.094434 146.092163,47.1280453 C146.882173,47.6776874 147.842769,48 148.878788,48 C151.417588,48 153.503466,46.064473 153.736024,43.5911692 C153.750246,43.5511551 153.757576,43.5134389 153.757576,43.4782609 C153.757576,43.416148 153.75657,43.3579441 153.754557,43.3033573 C153.756564,43.2459634 153.757576,43.188317 153.757576,43.1304348 C153.757576,40.4410482 151.573268,38.2608696 148.878788,38.2608696 C148.291817,38.2608696 147.729056,38.3643302 147.207813,38.5539775 Z" id="quote"></path>
            </g>
        </g>
    </g>
</svg>